FILE "King of Fighters '95, The (Europe) (Track 01).bin" BINARY
  TRACK 01 MODE2/2352
    INDEX 01 00:00:00
  TRACK 02 AUDIO
    INDEX 00 06:43:20
    INDEX 01 06:45:20
  TRACK 03 AUDIO
    INDEX 00 07:36:66
    INDEX 01 07:38:66
  TRACK 04 AUDIO
    INDEX 00 08:13:70
    INDEX 01 08:15:70
  TRACK 05 AUDIO
    INDEX 00 09:15:74
    INDEX 01 09:17:74
  TRACK 06 AUDIO
    INDEX 00 09:22:37
    INDEX 01 09:24:37
  TRACK 07 AUDIO
    INDEX 00 09:31:07
    INDEX 01 09:33:07
  TRACK 08 AUDIO
    INDEX 00 09:37:45
    INDEX 01 09:39:45
  TRACK 09 AUDIO
    INDEX 00 09:47:23
    INDEX 01 09:49:23
  TRACK 10 AUDIO
    INDEX 00 12:19:29
    INDEX 01 12:21:29
  TRACK 11 AUDIO
    INDEX 00 13:44:41
    INDEX 01 13:46:41
  TRACK 12 AUDIO
    INDEX 00 16:04:42
    INDEX 01 16:06:42
  TRACK 13 AUDIO
    INDEX 00 17:33:09
    INDEX 01 17:35:09
  TRACK 14 AUDIO
    INDEX 00 20:05:12
    INDEX 01 20:07:12
  TRACK 15 AUDIO
    INDEX 00 21:26:19
    INDEX 01 21:28:19
  TRACK 16 AUDIO
    INDEX 00 21:32:57
    INDEX 01 21:34:57
  TRACK 17 AUDIO
    INDEX 00 24:04:61
    INDEX 01 24:06:61
  TRACK 18 AUDIO
    INDEX 00 25:36:55
    INDEX 01 25:38:55
  TRACK 19 AUDIO
    INDEX 00 25:43:18
    INDEX 01 25:45:18
  TRACK 20 AUDIO
    INDEX 00 28:17:26
    INDEX 01 28:19:26
  TRACK 21 AUDIO
    INDEX 00 29:28:63
    INDEX 01 29:30:63
  TRACK 22 AUDIO
    INDEX 00 32:00:68
    INDEX 01 32:02:68
  TRACK 23 AUDIO
    INDEX 00 33:39:45
    INDEX 01 33:41:45
  TRACK 24 AUDIO
    INDEX 00 36:11:47
    INDEX 01 36:13:47
  TRACK 25 AUDIO
    INDEX 00 37:43:49
    INDEX 01 37:45:49
  TRACK 26 AUDIO
    INDEX 00 40:15:53
    INDEX 01 40:17:53
  TRACK 27 AUDIO
    INDEX 00 41:36:36
    INDEX 01 41:38:36
  TRACK 28 AUDIO
    INDEX 00 43:38:39
    INDEX 01 43:40:39
  TRACK 29 AUDIO
    INDEX 00 44:40:43
    INDEX 01 44:42:43
  TRACK 30 AUDIO
    INDEX 00 47:17:18
    INDEX 01 47:19:18
  TRACK 31 AUDIO
    INDEX 00 48:52:35
    INDEX 01 48:54:35
  TRACK 32 AUDIO
    INDEX 00 50:54:39
    INDEX 01 50:56:39
  TRACK 33 AUDIO
    INDEX 00 51:01:02
    INDEX 01 51:03:02
  TRACK 34 AUDIO
    INDEX 00 53:32:03
    INDEX 01 53:34:03
  TRACK 35 AUDIO
    INDEX 00 55:04:09
    INDEX 01 55:06:09
  TRACK 36 AUDIO
    INDEX 00 56:06:58
    INDEX 01 56:08:58
  TRACK 37 AUDIO
    INDEX 00 57:08:62
    INDEX 01 57:10:62
  TRACK 38 AUDIO
    INDEX 00 58:11:37
    INDEX 01 58:13:37
  TRACK 39 AUDIO
    INDEX 00 59:13:41
    INDEX 01 59:15:41
  TRACK 40 AUDIO
    INDEX 00 61:15:42
    INDEX 01 61:17:42
  TRACK 41 AUDIO
    INDEX 00 63:09:27
    INDEX 01 63:11:27
  TRACK 42 AUDIO
    INDEX 00 65:18:44
    INDEX 01 65:20:44
REM LEADOUT 68:20:44
